<svg width="590" height="650" viewBox="0 0 590 650" xmlns="http://www.w3.org/2000/svg" version="1.1" xmlns:xlink="http://www.w3.org/1999/xlink">
    <path d="M62.5 1.03c-5.5.404-12.7 1.437-16 2.297-3.3.86-10.05 2.057-15 2.66-10.661 1.3-21.972 3.773-25.602 5.6-1.43.72-3.343 2.442-4.25 3.826C.127 17.734 0 39.271 0 294.516c0 233.643.218 277.628 1.404 283.286.773 3.683 1.934 10.522 2.581 15.197 1.967 14.219 10.792 30.414 21.383 39.24 4.94 4.116 17.871 10.13 24.132 11.222 2.2.384 6.7 1.56 10 2.612 8.527 2.719 22.037 3.894 44.5 3.872 25.581-.026 41.43-1.213 58.317-4.366 7.599-1.419 15.856-2.58 18.35-2.58 3.822 0 5.066-.533 7.933-3.4l3.4-3.4.21-109.85c.265-138.685-.035-125.087 2.829-128.161l2.039-2.189h99.89c89.475 0 100.053.164 101.461 1.571a90.535 90.535 0 0 0 1.778 1.75c.115.099.452 42.479.75 94.179l.543 94 2.337 7.5c5.785 18.566 9.996 25.991 19.845 34.993 6.024 5.505 19.12 12.332 25.818 13.46 2.2.37 6.925 1.513 10.5 2.539 10.023 2.878 22.656 4.005 44.5 3.97 25.553-.042 43.913-1.319 55.126-3.837 4.881-1.095 12.186-2.279 16.234-2.63 8.721-.756 11.533-1.868 13.03-5.152 1.349-2.962 1.517-567.772.172-578.843-1.623-13.35-9.614-29.837-18.419-38-11.299-10.474-32.467-18.396-54.539-20.41C492.576-1.058 451.533.565 442.5 4c-1.517.577-8.251 1.691-14.964 2.477-15.957 1.866-26.491 5.772-26.554 9.844-.01.65-.123 53.254-.25 116.901-.229 114.339-.256 115.746-2.238 117.728-1.979 1.98-3.291 2.006-101.43 2.074l-99.426.069-2.569-2.568-2.569-2.568-.223-35.729c-.894-143.369-.932-145.17-3.21-153.728-4.734-17.782-10.822-30.308-18.155-37.354-4.642-4.46-18.628-12.503-24.412-14.038-13.091-3.474-22.427-5.277-31.612-6.104C103.029-.066 77.247-.053 62.5 1.03Z" fill="#1722B5"></path>
  </svg>